# xmcd
#
# Track frame offsets: 
#        150
#        17090
#        37476
#        49881
#        66174
#
# Disc length: 1134 seconds
#
# Revision: 0
# Processed by: cddbd v1.5.2PL0 Copyright (c) Steve Scherf et al.
# Submitted via: ExactAudioCopy v1.0b3
#
DISCID=46046c05
DTITLE=J. Cole - Born Sinner (Deluxe Edition) [CD2 - Truly Yours 3 
DTITLE=)
DYEAR=2013
DGENRE=Hip-Hop
TTITLE0=Miss America
TTITLE1=New York Times (feat. 50 Cent and Bas)
TTITLE2=Is She Gon Pop
TTITLE3=Niggaz Know
TTITLE4=Sparks Will Fly (feat. Jhené Aiko)
EXTD=
EXTT0=
EXTT1=
EXTT2=
EXTT3=
EXTT4=
PLAYORDER=
